<svg xmlns="http://www.w3.org/2000/svg" xmlns:xlink="http://www.w3.org/1999/xlink" viewBox="0 0 1929 1095">
  <defs>
    <style>
      .cls-1{fill:none;}.cls-2{isolation:isolate;}.cls-3{clip-path:url(#clip-path);}.cls-4{fill:url(#radial-gradient);}.cls-5{fill:url(#radial-gradient-9);}.cls-6{mix-blend-mode:color;}.cls-7{fill:url(#linear-gradient);}.cls-8{opacity:0.34;mix-blend-mode:hard-light;}.cls-9{fill:url(#radial-gradient-10);}.cls-10{opacity:0.24;}.cls-11{fill:url(#radial-gradient-11);}.cls-12{opacity:0.67;}.cls-13{opacity:0.54;}.cls-14{opacity:0.66;}
    </style>
    <radialGradient id="radial-gradient" cx="972.5" cy="-1" r="1070.29" gradientUnits="userSpaceOnUse">
      <stop offset="0" stop-color="#333"/>
      <stop offset=".64" stop-color="#0f0f0f"/>
      <stop offset="1"/>
    </radialGradient>
    <radialGradient id="radial-gradient-9" cx="972" r="1070.05" xlink:href="#radial-gradient"/>
    <linearGradient id="linear-gradient" x1="247.96" y1="16.92" x2="1252.57" y2="760.29" gradientUnits="userSpaceOnUse">
      <stop offset="0" stop-color="#29fde2"/>
      <stop offset="1" stop-color="#be2d91"/>
    </linearGradient>
    <radialGradient id="radial-gradient-10" cx="1251" cy="-14" r="478.5" gradientTransform="rotate(135.43 1252.574 -10.16) scale(1 .45)" gradientUnits="userSpaceOnUse">
      <stop offset="0" stop-color="#ffe200"/>
      <stop offset=".21" stop-color="#ffe800" stop-opacity=".81"/>
      <stop offset=".68" stop-color="#fff500" stop-opacity=".34"/>
      <stop offset="1" stop-color="#ff0" stop-opacity="0"/>
    </radialGradient>
    <radialGradient id="radial-gradient-11" cx="1514" cy="1" r="478.5" gradientTransform="rotate(135.43 1513.9 .75) scale(1 .45)" gradientUnits="userSpaceOnUse">
      <stop offset="0" stop-color="red"/>
      <stop offset=".21" stop-color="red" stop-opacity=".81"/>
      <stop offset=".68" stop-color="red" stop-opacity=".34"/>
      <stop offset="1" stop-color="red" stop-opacity="0"/>
    </radialGradient>
  </defs>
  <title>
    bg
  </title>
  <g class="cls-2">
    <g id="Layer_2" data-name="Layer 2">
      <g id="Layer_1-2" data-name="Layer 1">
        <g class="cls-3" id="two">
          <path class="cls-4" d="M0 0h1928v1095H0z"/>
          <path class="cls-4" d="M1927 1v1093H1V1h1926m1-1H0v1095h1928V0z"/>
          <path class="cls-4" d="M1 0h1928v1095H1z"/>
          <path class="cls-4" d="M1928 1v1093H2V1h1926m1-1H1v1095h1928V0z"/>
          <path class="cls-4" d="M1 0h1928v1095H1z"/>
          <path class="cls-4" d="M1928 1v1093H2V1h1926m1-1H1v1095h1928V0z"/>
          <path class="cls-4" d="M1 0h1928v1095H1z"/>
          <path class="cls-4" d="M1928 1v1093H2V1h1926m1-1H1v1095h1928V0z"/>
          <path class="cls-5" d="M0 0h1928v1095H0z"/>
          <path class="cls-6 cls-7" d="M1 0h1928v1095H1z"/>
          <path class="cls-8 cls-9" d="M1 0h1928v1095H1z"/>
          <path class="cls-10 cls-11" d="M1 0h1928v1095H1z"/>
          <use transform="translate(1182 577)" xlink:href="#image"/>
          <use transform="translate(1175 495)" xlink:href="#image" class="cls-12"/>
          <use transform="translate(1284 340)" xlink:href="#image-2" class="cls-13"/>
          <use transform="translate(60 289)" xlink:href="#image-3" class="cls-14"/>
          <use transform="translate(1182 577)" xlink:href="#image"/>
          <use transform="translate(1175 495)" xlink:href="#image" class="cls-12"/>
          <use transform="translate(1284 340)" xlink:href="#image-2" class="cls-13"/>
          <use transform="translate(60 289)" xlink:href="#image-3" class="cls-14"/>
        </g>
      </g>
    </g>
  </g>
</svg>
